HIERARCHY
ROOT Hips
{
    OFFSET 0.000000 0.000000 0.000000
    CHANNELS 6 Xposition Yposition Zposition Zrotation Xrotation Yrotation
    JOINT Spine
    {
        OFFSET -0.000000 7.979263 0.000000
        CHANNELS 3 Zrotation Xrotation Yrotation
        JOINT Spine1
        {
            OFFSET -0.000000 24.719021 0.000000
            CHANNELS 3 Zrotation Xrotation Yrotation
            JOINT Neck
            {
                OFFSET -0.000000 24.617504 2.237955
                CHANNELS 3 Zrotation Xrotation Yrotation
                JOINT Head
                {
                    OFFSET -0.000000 13.623132 -1.946162
                    CHANNELS 3 Zrotation Xrotation Yrotation
                    End Site
                    {
                        OFFSET -0.000000 24.327021 0.000000
                    }
                }
            }
            JOINT LeftShoulder
            {
                OFFSET 3.885773 23.018444 -0.302444
                CHANNELS 3 Zrotation Xrotation Yrotation
                JOINT LeftArm
                {
                    OFFSET 10.447750 0.000000 0.000000
                    CHANNELS 3 Zrotation Xrotation Yrotation
                    JOINT LeftForeArm
                    {
                        OFFSET 29.090096 0.000000 0.000000
                        CHANNELS 3 Zrotation Xrotation Yrotation
                        JOINT LeftHand
                        {
                            OFFSET 28.893339 0.000000 0.000000
                            CHANNELS 3 Zrotation Xrotation Yrotation
                            End Site
                            {
                                OFFSET 14.596213 0.000000 0.000000
                            }
                        }
                    }
                }
            }
            JOINT RightShoulder
            {
                OFFSET -3.864586 23.018444 -0.302444
                CHANNELS 3 Zrotation Xrotation Yrotation
                JOINT RightArm
                {
                    OFFSET -10.447750 0.000000 0.000000
                    CHANNELS 3 Zrotation Xrotation Yrotation
                    JOINT RightForeArm
                    {
                        OFFSET -29.090096 0.000000 0.000000
                        CHANNELS 3 Zrotation Xrotation Yrotation
                        JOINT RightHand
                        {
                            OFFSET -28.893339 0.000000 0.000000
                            CHANNELS 3 Zrotation Xrotation Yrotation
                            End Site
                            {
                                OFFSET -14.596213 0.000000 0.000000
                            }
                        }
                    }
                }
            }
        }
    }
    JOINT LeftUpLeg
    {
        OFFSET 9.730808 0.000000 0.000000
        CHANNELS 3 Zrotation Xrotation Yrotation
        JOINT LeftLeg
        {
            OFFSET -0.000000 -34.800129 0.000000
            CHANNELS 3 Zrotation Xrotation Yrotation
            JOINT LeftFoot
            {
                OFFSET -0.000000 -44.597416 0.000000
                CHANNELS 3 Zrotation Xrotation Yrotation
                JOINT LeftToeBase
                {
                    OFFSET -0.000000 -6.325025 14.596213
                    CHANNELS 3 Zrotation Xrotation Yrotation
                    End Site
                    {
                        OFFSET -0.000000 0.000000 3.892323
                    }
                }
            }
        }
    }
    JOINT RightUpLeg
    {
        OFFSET -9.730808 0.000000 0.000000
        CHANNELS 3 Zrotation Xrotation Yrotation
        JOINT RightLeg
        {
            OFFSET -0.000000 -34.800129 0.000000
            CHANNELS 3 Zrotation Xrotation Yrotation
            JOINT RightFoot
            {
                OFFSET -0.000000 -44.597416 0.000000
                CHANNELS 3 Zrotation Xrotation Yrotation
                JOINT RightToeBase
                {
                    OFFSET -0.000000 -6.325025 14.596213
                    CHANNELS 3 Zrotation Xrotation Yrotation
                    End Site
                    {
                        OFFSET -0.000000 0.000000 3.892323
                    }
                }
            }
        }
    }
}
MOTION
Frames:    12
Frame Time:    0.008333
3.492501    91.430466    27.456438    -16.609465    11.186911    92.460434    -6.566726    9.210070    1.792373    -5.459365    -3.512677    1.095342    -14.517747    25.113916    2.269395    14.597354    19.854542    0.624976    3.900784    6.612446    -13.163124    -71.102280    33.522255    15.844927    7.132458    -15.607876    -44.467102    -12.929995    -12.484464    -2.651860    -8.621827    4.413128    7.150277    58.492863    41.111729    4.124436    -5.503577    -11.443024    22.196966    4.996786    -9.956470    9.888746    -133.083801    -80.471825    -152.570007    -87.582527    60.555252    96.886108    -4.876667    -23.684792    -2.899940    0.000000    0.000000    0.000000    -16.612108    -22.791870    -23.277046    -6.802671    33.472874    0.063406    11.378310    17.234392    12.330579    0.000000    0.000000    0.000000    
3.713020    91.845467    27.368563    -17.359354    11.217140    92.413528    -6.916739    9.151918    1.850739    -5.318882    -3.771340    1.121191    -14.181260    24.607426    2.103752    14.275064    20.411924    0.490333    3.874481    6.462625    -13.383721    -70.631050    33.288723    16.478117    7.045727    -15.344075    -45.540791    -12.573662    -12.186920    -2.627771    -8.791316    4.355296    7.053208    57.973938    41.368176    4.131773    -5.991741    -11.691731    22.487972    3.920344    -10.207093    9.330174    -132.893463    -80.438622    -152.459167    -86.530823    60.507824    96.161041    -5.108128    -23.788185    -3.068088    0.000000    0.000000    0.000000    -16.596704    -22.816809    -23.219118    -6.368847    32.282661    -0.450049    11.099346    18.410486    12.204464    0.000000    0.000000    0.000000    
3.873218    92.312256    27.303844    -18.246616    11.123244    92.564095    -7.013206    8.983520    1.775209    -5.485135    -3.940288    1.034748    -13.650308    24.444824    2.014949    13.991169    20.301476    0.489033    4.069660    6.382571    -13.570670    -70.493729    33.531357    17.047928    7.736747    -15.581971    -46.316750    -12.701924    -12.152724    -1.957984    -8.798559    4.160804    7.038043    57.497375    41.000053    4.044269    -6.110621    -11.591706    22.805485    3.483310    -10.101490    9.314602    -132.565826    -80.196243    -152.260040    -85.235901    60.548573    95.033691    -5.216440    -23.722322    -3.031900    0.000000    0.000000    0.000000    -16.497185    -22.929464    -23.628027    -6.143059    30.997292    -0.404010    10.890054    19.723465    11.787496    0.000000    0.000000    0.000000    
4.118430    92.850227    27.225035    -18.893270    11.066104    92.501343    -7.161389    8.934307    1.803432    -5.678402    -3.958931    1.046772    -14.059176    23.697878    1.975270    15.241137    21.098835    0.358356    4.476778    5.981859    -13.747311    -70.727951    33.889042    17.708294    8.263696    -15.840680    -46.740570    -12.609686    -12.127950    -2.253458    -8.895544    3.766311    6.919107    57.191246    40.492901    3.891994    -5.842576    -11.601342    23.303490    1.987238    -10.270433    8.619975    -131.374466    -80.292763    -151.228607    -83.918839    60.438404    93.804459    -5.217218    -23.736881    -2.779660    0.000000    0.000000    0.000000    -16.388203    -22.686852    -23.551338    -5.575062    29.487686    -1.036951    10.494303    21.355566    11.750993    0.000000    0.000000    0.000000    
4.326858    93.483353    27.187088    -19.789856    10.896322    92.408958    -7.335363    8.651000    1.884353    -5.793025    -3.977044    1.127479    -13.054904    23.546785    1.765468    14.595667    20.918003    0.286596    4.949663    5.764447    -14.110860    -70.527809    33.584507    18.129354    8.204451    -15.699879    -47.567497    -12.497008    -11.923610    -2.435648    -8.816401    3.599932    6.687807    56.631008    40.327209    3.912271    -6.266525    -11.597113    23.559113    2.047488    -10.155416    8.939789    -131.301193    -80.275337    -151.156570    -82.383614    60.663059    92.558105    -5.517374    -23.434780    -2.790693    0.000000    0.000000    0.000000    -16.151161    -22.809559    -23.722660    -5.196695    27.948732    -1.538139    9.971231    23.594587    11.772718    0.000000    0.000000    0.000000    
4.544762    94.148788    27.178074    -20.486027    10.647448    92.216179    -7.637685    8.546934    2.025640    -5.577914    -3.998256    1.259195    -12.086401    23.273792    1.474754    13.846257    21.016741    0.105481    5.171941    5.642851    -14.534977    -70.470436    33.626163    18.452768    8.541188    -15.997959    -47.886581    -12.331438    -12.084506    -2.167889    -8.945115    3.561243    6.496112    56.175896    40.180748    4.037676    -6.696723    -11.690384    23.779154    1.834244    -10.157959    9.304092    -130.590378    -80.495132    -150.504837    -80.799873    60.838615    90.935257    -5.510169    -23.208345    -2.417319    0.000000    0.000000    0.000000    -15.801103    -22.712542    -23.667358    -4.662907    26.320431    -2.342668    9.247453    25.930470    12.055382    0.000000    0.000000    0.000000    
4.652676    94.867416    27.154142    -21.583031    10.281606    92.197693    -7.908869    7.996459    2.142985    -5.196859    -3.737998    1.419592    -11.336679    22.708950    1.099438    13.542881    21.271124    -0.189901    5.421721    5.497199    -15.130181    -70.446289    33.472721    18.586290    8.848079    -16.369366    -48.183647    -12.167834    -12.288472    -2.321586    -9.214898    3.039685    6.075010    55.736641    39.734531    3.992127    -6.273789    -11.631304    24.379585    0.444602    -10.266581    8.620687    -131.092285    -80.374649    -151.192154    -78.623024    60.947266    89.088097    -5.577541    -22.705315    -2.372313    0.000000    0.000000    0.000000    -15.556438    -23.000484    -23.656151    -3.851456    24.671875    -3.421891    9.173934    28.838623    11.837454    0.000000    0.000000    0.000000    
4.843483    95.627853    27.170500    -22.356308    9.839525    91.935257    -8.161118    7.809408    2.372913    -4.835591    -3.745641    1.656722    -11.226852    22.197227    0.783691    14.207390    21.875801    -0.567064    5.770337    5.463156    -15.843055    -70.430740    33.358311    18.766363    8.893806    -16.775330    -48.472363    -11.831506    -12.643148    -2.510684    -9.310625    3.130263    5.785307    55.269943    40.453907    4.040271    -6.827443    -12.741002    24.827318    -0.411587    -11.298596    8.271711    -130.816422    -80.568825    -151.024094    -76.603065    61.243118    87.470261    -5.805547    -22.123089    -2.463439    0.000000    0.000000    0.000000    -15.076906    -23.056326    -23.881889    -3.345059    22.991499    -4.085155    8.234584    31.927113    12.113631    0.000000    0.000000    0.000000    
5.046938    96.397659    27.130529    -23.081028    9.488894    91.939384    -8.446922    7.514165    2.427918    -4.354351    -3.401838    1.742864    -10.544518    21.908524    0.485116    13.696254    21.666740    -0.756269    5.952771    5.311955    -16.320423    -70.621376    33.415089    18.906246    9.274760    -17.348051    -48.543365    -11.533063    -13.067623    -2.417448    -9.629272    2.891256    5.433211    54.915569    40.846809    4.155553    -7.516792    -13.177406    24.973431    0.498702    -11.509906    9.183414    -128.738602    -80.604401    -149.051208    -74.304367    61.347950    85.476601    -5.853076    -21.566927    -2.351552    0.000000    0.000000    0.000000    -14.982381    -22.971817    -24.022463    -2.451821    21.484207    -5.531480    7.074370    34.619759    12.793831    0.000000    0.000000    0.000000    
5.227985    97.205589    27.090219    -23.916285    9.196294    91.725891    -8.660695    7.388927    2.512332    -4.234841    -3.538907    1.821208    -9.991328    21.492157    0.182154    13.500769    21.894152    -1.019278    6.306223    5.273063    -16.578091    -70.562920    33.402794    19.079037    9.205963    -17.554104    -48.976215    -10.962037    -13.329764    -1.876816    -9.485271    2.723442    5.187970    54.387356    40.973785    4.123998    -7.711059    -13.770003    25.490419    -0.148621    -12.078917    8.970144    -127.860977    -80.775032    -148.250977    -71.901917    61.393177    83.350426    -5.917303    -20.954924    -2.205816    0.000000    0.000000    0.000000    -14.839422    -23.197693    -24.783030    -1.933499    20.051344    -6.564980    7.196433    37.823799    12.593872    0.000000    0.000000    0.000000    
5.361072    98.062057    27.127344    -24.733322    8.609689    91.393120    -8.470411    7.272406    2.405253    -4.160511    -3.702237    1.731474    -9.687354    20.923126    0.271203    13.153481    22.289175    -0.888255    6.296747    5.251941    -16.329479    -70.484459    33.921280    19.424688    9.459268    -18.237913    -48.999752    -10.924199    -13.857193    -2.482144    -9.565031    2.601367    5.476366    54.085880    41.870667    4.270268    -8.763202    -14.570661    25.562510    0.648000    -12.582455    9.460691    -127.677216    -81.089645    -148.204636    -69.306900    61.624344    80.971863    -5.857397    -20.214310    -2.065791    0.000000    0.000000    0.000000    -14.228497    -23.731354    -25.030016    -1.545742    19.104017    -7.372366    8.259812    40.515152    11.031953    0.000000    0.000000    0.000000    
5.538251    98.856178    27.118975    -25.537975    8.241424    91.170128    -8.569803    7.037968    2.325883    -3.879691    -3.687165    1.672991    -9.697728    20.165649    0.283983    13.178309    22.857578    -0.876203    6.219193    5.095982    -16.072378    -70.660858    34.640694    19.818453    10.210862    -18.846664    -48.898376    -10.761060    -14.215688    -1.861293    -9.798977    2.142579    5.436275    53.972252    42.825172    3.980425    -9.029559    -15.543162    26.599569    -0.565124    -13.513087    8.440998    -127.075218    -81.279892    -147.527084    -66.845451    61.813995    78.572212    -5.835335    -19.541777    -1.742719    0.000000    0.000000    0.000000    -13.976540    -24.185040    -25.463465    -1.111668    18.161341    -8.245036    9.520933    42.835991    9.506691    0.000000    0.000000    0.000000    
